<svg width="22" height="17" viewBox="0 0 22 17" fill="none" xmlns="http://www.w3.org/2000/svg">
<path d="M7.63478 6.54346C7.63478 7.11875 7.16841 7.58512 6.59311 7.58512C6.01781 7.58512 5.55144 7.11875 5.55144 6.54346C5.55144 5.96816 6.01781 5.50179 6.59311 5.50179C7.16841 5.50179 7.63478 5.96816 7.63478 6.54346Z" fill="#0062E1"/>
<path d="M10.7598 7.58512C11.3351 7.58512 11.8014 7.11875 11.8014 6.54346C11.8014 5.96816 11.3351 5.50179 10.7598 5.50179C10.1845 5.50179 9.71811 5.96816 9.71811 6.54346C9.71811 7.11875 10.1845 7.58512 10.7598 7.58512Z" fill="#0062E1"/>
<path d="M14.9264 7.58512C15.5017 7.58512 15.9681 7.11875 15.9681 6.54346C15.9681 5.96816 15.5017 5.50179 14.9264 5.50179C14.3511 5.50179 13.8848 5.96816 13.8848 6.54346C13.8848 7.11875 14.3511 7.58512 14.9264 7.58512Z" fill="#0062E1"/>
<path fill-rule="evenodd" clip-rule="evenodd" d="M9.36198 13.8084C9.38472 13.8008 9.40678 13.793 9.42806 13.7848C10.0012 14.4532 10.8519 14.8768 11.8014 14.8768H14.6396L17.1011 16.846C17.2574 16.9711 17.4716 16.9954 17.6521 16.9087C17.8325 16.822 17.9473 16.6395 17.9473 16.4393V14.8768H18.0514C19.7773 14.8768 21.1764 13.4777 21.1764 11.7518C21.1764 10.9381 20.8655 10.1971 20.3559 9.6411C20.8781 8.7277 21.1764 7.66979 21.1764 6.54346C21.1764 3.09168 18.3782 0.293457 14.9264 0.293457H6.59311C3.14133 0.293457 0.343109 3.09168 0.343109 6.54346C0.343109 9.64041 2.59527 12.2108 5.55144 12.707V14.356C5.55144 14.5234 5.63192 14.6806 5.76774 14.7785C5.90356 14.8764 6.07815 14.903 6.23698 14.8501L9.36198 13.8084ZM6.59311 1.33512C3.71663 1.33512 1.38478 3.66697 1.38478 6.54346C1.38478 9.26005 3.46498 11.4914 6.11902 11.7305C6.39393 11.7553 6.59962 11.9894 6.59299 12.2615L6.59311 12.2726V13.6333L8.88253 12.8702C8.74939 12.5229 8.67644 12.1459 8.67644 11.7518C8.67644 10.0259 10.0756 8.62679 11.8014 8.62679H18.0514C18.5836 8.62679 19.0847 8.75982 19.5233 8.99443C19.9135 8.26427 20.1348 7.43027 20.1348 6.54346C20.1348 3.66697 17.8029 1.33512 14.9264 1.33512H6.59311ZM17.4817 13.838C17.4957 13.8361 17.512 13.8351 17.5306 13.8351H18.0514C19.202 13.8351 20.1348 12.9024 20.1348 11.7518C20.1348 10.6012 19.202 9.66846 18.0514 9.66846H11.8014C10.6508 9.66846 9.71811 10.6012 9.71811 11.7518C9.71811 12.9024 10.6508 13.8351 11.8014 13.8351H14.8223C14.947 13.8351 15.0615 13.879 15.1511 13.9521L16.9056 15.3556V14.356C16.9056 14.0683 17.1388 13.8351 17.4264 13.8351C17.4451 13.8351 17.4635 13.8361 17.4817 13.838Z" fill="#0062E1"/>
</svg>
