<svg width="20" height="21" viewBox="0 0 20 21" fill="none" xmlns="http://www.w3.org/2000/svg">
<path fill-rule="evenodd" clip-rule="evenodd" d="M5.95571 5.35051C6.03385 5.27237 6.13983 5.22847 6.25033 5.22847H17.0837C17.1942 5.22847 17.3001 5.27237 17.3783 5.35051C17.4564 5.42867 17.5003 5.53465 17.5003 5.64514V13.1451C17.5003 13.2556 17.4564 13.3616 17.3783 13.4398C17.3001 13.5179 17.1942 13.5618 17.0837 13.5618H8.75033C8.52021 13.5618 8.33366 13.7484 8.33366 13.9785C8.33366 14.2086 8.52021 14.3951 8.75033 14.3951H9.99198V15.2285H8.73364C8.50352 15.2285 8.31698 15.415 8.31698 15.6451C8.31698 15.8753 8.50352 16.0618 8.73364 16.0618H14.567C14.7971 16.0618 14.9836 15.8753 14.9836 15.6451C14.9836 15.415 14.7971 15.2285 14.567 15.2285H13.3337V14.3951H17.0837C17.4152 14.3951 17.7331 14.2634 17.9675 14.029C18.2019 13.7946 18.3337 13.4767 18.3337 13.1451V5.64514C18.3337 5.31361 18.2019 4.99567 17.9675 4.76126C17.7331 4.52684 17.4152 4.39514 17.0837 4.39514H6.25033C5.9188 4.39514 5.60087 4.52684 5.36645 4.76126C5.13204 4.99567 5.00033 5.31361 5.00033 5.64514V6.47847C5.00033 6.70859 5.18687 6.89514 5.41699 6.89514C5.64711 6.89514 5.83366 6.70859 5.83366 6.47847V5.64514C5.83366 5.53465 5.87756 5.42867 5.95571 5.35051ZM12.5003 14.3951H10.8253V15.2285H12.5003V14.3951Z" fill="white"/>
<path d="M5.00033 15.6451C5.00033 15.8753 4.81378 16.0618 4.58366 16.0618C4.35354 16.0618 4.16699 15.8753 4.16699 15.6451C4.16699 15.415 4.35354 15.2285 4.58366 15.2285C4.81378 15.2285 5.00033 15.415 5.00033 15.6451Z" fill="white"/>
<path fill-rule="evenodd" clip-rule="evenodd" d="M1.66699 8.97847C1.66699 8.28812 2.22664 7.72847 2.91699 7.72847H6.25033C6.94068 7.72847 7.50033 8.28812 7.50033 8.97847V16.4785C7.50033 17.1688 6.94068 17.7285 6.25033 17.7285H2.91699C2.22664 17.7285 1.66699 17.1688 1.66699 16.4785V8.97847ZM2.91699 8.56181C2.68687 8.56181 2.50033 8.74836 2.50033 8.97847V16.4785C2.50033 16.7086 2.68687 16.8951 2.91699 16.8951H6.25033C6.48044 16.8951 6.66699 16.7086 6.66699 16.4785V8.97847C6.66699 8.74836 6.48044 8.56181 6.25033 8.56181H2.91699Z" fill="white"/>
<path fill-rule="evenodd" clip-rule="evenodd" d="M5.95571 5.35051C6.03385 5.27237 6.13983 5.22847 6.25033 5.22847H17.0837C17.1942 5.22847 17.3001 5.27237 17.3783 5.35051C17.4564 5.42867 17.5003 5.53465 17.5003 5.64514V13.1451C17.5003 13.2556 17.4564 13.3616 17.3783 13.4398C17.3001 13.5179 17.1942 13.5618 17.0837 13.5618H8.75033C8.52021 13.5618 8.33366 13.7484 8.33366 13.9785C8.33366 14.2086 8.52021 14.3951 8.75033 14.3951H9.99198V15.2285H8.73364C8.50352 15.2285 8.31698 15.415 8.31698 15.6451C8.31698 15.8753 8.50352 16.0618 8.73364 16.0618H14.567C14.7971 16.0618 14.9836 15.8753 14.9836 15.6451C14.9836 15.415 14.7971 15.2285 14.567 15.2285H13.3337V14.3951H17.0837C17.4152 14.3951 17.7331 14.2634 17.9675 14.029C18.2019 13.7946 18.3337 13.4767 18.3337 13.1451V5.64514C18.3337 5.31361 18.2019 4.99567 17.9675 4.76126C17.7331 4.52684 17.4152 4.39514 17.0837 4.39514H6.25033C5.9188 4.39514 5.60087 4.52684 5.36645 4.76126C5.13204 4.99567 5.00033 5.31361 5.00033 5.64514V6.47847C5.00033 6.70859 5.18687 6.89514 5.41699 6.89514C5.64711 6.89514 5.83366 6.70859 5.83366 6.47847V5.64514C5.83366 5.53465 5.87756 5.42867 5.95571 5.35051ZM12.5003 14.3951H10.8253V15.2285H12.5003V14.3951Z" stroke="white" stroke-width="0.3"/>
<path d="M5.00033 15.6451C5.00033 15.8753 4.81378 16.0618 4.58366 16.0618C4.35354 16.0618 4.16699 15.8753 4.16699 15.6451C4.16699 15.415 4.35354 15.2285 4.58366 15.2285C4.81378 15.2285 5.00033 15.415 5.00033 15.6451Z" stroke="white" stroke-width="0.3"/>
<path fill-rule="evenodd" clip-rule="evenodd" d="M1.66699 8.97847C1.66699 8.28812 2.22664 7.72847 2.91699 7.72847H6.25033C6.94068 7.72847 7.50033 8.28812 7.50033 8.97847V16.4785C7.50033 17.1688 6.94068 17.7285 6.25033 17.7285H2.91699C2.22664 17.7285 1.66699 17.1688 1.66699 16.4785V8.97847ZM2.91699 8.56181C2.68687 8.56181 2.50033 8.74836 2.50033 8.97847V16.4785C2.50033 16.7086 2.68687 16.8951 2.91699 16.8951H6.25033C6.48044 16.8951 6.66699 16.7086 6.66699 16.4785V8.97847C6.66699 8.74836 6.48044 8.56181 6.25033 8.56181H2.91699Z" stroke="white" stroke-width="0.3"/>
</svg>
