<svg width="20" height="21" viewBox="0 0 20 21" fill="none" xmlns="http://www.w3.org/2000/svg">
<path fill-rule="evenodd" clip-rule="evenodd" d="M7.08367 1.89526C6.62343 1.89526 6.25034 2.26836 6.25034 2.7286V3.56193H5.00033C4.5401 3.56193 4.167 3.93503 4.167 4.39526V4.76289C4.16535 5.58216 4.38504 6.38611 4.80129 7.06182C5.16448 7.65139 5.66422 8.12143 6.25034 8.41506V8.56193C6.25034 9.73349 6.73068 10.5938 7.52696 11.1443C8.20098 11.6102 9.07122 11.8342 10.0003 11.8842V13.5619H9.167C8.83548 13.5619 8.51754 13.6936 8.28312 13.928C8.0487 14.1625 7.917 14.4804 7.917 14.8119V15.2286H7.50034C7.16882 15.2286 6.85088 15.3603 6.61645 15.5947C6.38203 15.8291 6.25034 16.1471 6.25034 16.4786V18.1453C6.25034 18.3754 6.43689 18.5619 6.667 18.5619H14.167C14.3971 18.5619 14.5837 18.3754 14.5837 18.1453V16.4786C14.5837 16.1471 14.452 15.8291 14.2176 15.5947C13.9831 15.3603 13.6652 15.2286 13.3337 15.2286H12.917V14.8119C12.917 14.4804 12.7853 14.1625 12.5509 13.928C12.3165 13.6936 11.9985 13.5619 11.667 13.5619H10.8337V11.8841C11.7633 11.8336 12.6336 11.6077 13.3074 11.1409C14.103 10.5897 14.5837 9.72977 14.5837 8.56193V8.41505C15.1698 8.12143 15.6695 7.65139 16.0327 7.06182C16.449 6.38611 16.6686 5.58216 16.667 4.76289V4.39526C16.667 3.93503 16.2939 3.56193 15.8337 3.56193H14.5837V2.7286C14.5837 2.26836 14.2106 1.89526 13.7503 1.89526H7.08367ZM12.8328 10.4559C13.3935 10.0675 13.7503 9.46909 13.7503 8.56193V2.7286H7.08367V8.56193C7.08367 9.47371 7.44083 10.0717 8.0008 10.4588C8.5831 10.8613 9.42545 11.0619 10.417 11.0619C11.4078 11.0619 12.2503 10.8595 12.8328 10.4559ZM5.00033 4.39526L6.23835 4.39526V7.43116C5.9591 7.22196 5.71117 6.95001 5.51081 6.62475C5.17961 6.08711 4.99891 5.43623 5.00033 4.7642V4.39526ZM8.87238 14.5173C8.95052 14.4392 9.0565 14.3953 9.167 14.3953H11.667C11.7775 14.3953 11.8835 14.4392 11.9616 14.5173C12.0398 14.5954 12.0837 14.7014 12.0837 14.8119V15.2286H8.75034V14.8119C8.75034 14.7014 8.79424 14.5954 8.87238 14.5173ZM7.50034 16.0619C7.38983 16.0619 7.28385 16.1058 7.20571 16.184C7.12757 16.2621 7.08367 16.3681 7.08367 16.4786V17.7286H13.7503V16.4786C13.7503 16.3681 13.7064 16.2621 13.6283 16.184C13.5502 16.1058 13.4442 16.0619 13.3337 16.0619H7.50034ZM14.5956 4.39526L15.8337 4.39526V4.7642C15.8351 5.43623 15.6544 6.08711 15.3232 6.62475C15.1228 6.95001 14.8749 7.22196 14.5956 7.43116V4.39526Z" fill="white" stroke="white" stroke-width="0.3"/>
</svg>
